<svg width="20" height="21" viewBox="0 0 20 21" fill="none" xmlns="http://www.w3.org/2000/svg">
<path id="Vector" d="M17 0.5H3C2.20435 0.5 1.44129 0.816071 0.87868 1.37868C0.316071 1.94129 0 2.70435 0 3.5V17.5C0 18.2956 0.316071 19.0587 0.87868 19.6213C1.44129 20.1839 2.20435 20.5 3 20.5H17C17.1645 20.4977 17.3284 20.481 17.49 20.45L17.79 20.38H17.86H17.91L18.28 20.24L18.41 20.17C18.51 20.11 18.62 20.06 18.72 19.99C18.8535 19.8918 18.9805 19.7849 19.1 19.67L19.17 19.58C19.2682 19.4805 19.3585 19.3735 19.44 19.26L19.53 19.13C19.5998 19.0187 19.6601 18.9016 19.71 18.78C19.7374 18.732 19.7609 18.6818 19.78 18.63C19.83 18.51 19.86 18.38 19.9 18.25V18.1C19.9567 17.9046 19.9903 17.7032 20 17.5V3.5C20 2.70435 19.6839 1.94129 19.1213 1.37868C18.5587 0.816071 17.7956 0.5 17 0.5ZM3 18.5C2.73478 18.5 2.48043 18.3946 2.29289 18.2071C2.10536 18.0196 2 17.7652 2 17.5V13.19L5.29 9.89C5.38296 9.79627 5.49356 9.72188 5.61542 9.67111C5.73728 9.62034 5.86799 9.5942 6 9.5942C6.13201 9.5942 6.26272 9.62034 6.38458 9.67111C6.50644 9.72188 6.61704 9.79627 6.71 9.89L15.31 18.5H3ZM18 17.5C17.9991 17.6233 17.9753 17.7453 17.93 17.86C17.9071 17.9087 17.8804 17.9556 17.85 18C17.8232 18.0423 17.7931 18.0825 17.76 18.12L12.41 12.77L13.29 11.89C13.383 11.7963 13.4936 11.7219 13.6154 11.6711C13.7373 11.6203 13.868 11.5942 14 11.5942C14.132 11.5942 14.2627 11.6203 14.3846 11.6711C14.5064 11.7219 14.617 11.7963 14.71 11.89L18 15.19V17.5ZM18 12.36L16.12 10.5C15.5477 9.95699 14.7889 9.65428 14 9.65428C13.2111 9.65428 12.4523 9.95699 11.88 10.5L11 11.38L8.12 8.5C7.54772 7.95699 6.7889 7.65428 6 7.65428C5.2111 7.65428 4.45228 7.95699 3.88 8.5L2 10.36V3.5C2 3.23478 2.10536 2.98043 2.29289 2.79289C2.48043 2.60536 2.73478 2.5 3 2.5H17C17.2652 2.5 17.5196 2.60536 17.7071 2.79289C17.8946 2.98043 18 3.23478 18 3.5V12.36ZM11.5 4.5C11.2033 4.5 10.9133 4.58797 10.6666 4.7528C10.42 4.91762 10.2277 5.15189 10.1142 5.42597C10.0006 5.70006 9.97094 6.00166 10.0288 6.29264C10.0867 6.58361 10.2296 6.85088 10.4393 7.06066C10.6491 7.27044 10.9164 7.4133 11.2074 7.47118C11.4983 7.52906 11.7999 7.49935 12.074 7.38582C12.3481 7.27229 12.5824 7.08003 12.7472 6.83335C12.912 6.58668 13 6.29667 13 6C13 5.60218 12.842 5.22064 12.5607 4.93934C12.2794 4.65804 11.8978 4.5 11.5 4.5Z" fill="#384EDD"/>
</svg>
