<svg width="24" height="24" viewBox="0 0 24 24" fill="none" xmlns="http://www.w3.org/2000/svg">
<path id="Vector" d="M20.4 0H3.6C2.64522 0 1.72955 0.379285 1.05442 1.05442C0.379285 1.72955 0 2.64522 0 3.6V20.4C0 21.3548 0.379285 22.2705 1.05442 22.9456C1.72955 23.6207 2.64522 24 3.6 24H20.4C20.5974 23.9972 20.7941 23.9772 20.988 23.94L21.348 23.856H21.432H21.492L21.936 23.688L22.092 23.604C22.212 23.532 22.344 23.472 22.464 23.388C22.6242 23.2701 22.7766 23.1418 22.92 23.004L23.004 22.896C23.1218 22.7766 23.2301 22.6482 23.328 22.512L23.436 22.356C23.5198 22.2224 23.5921 22.0819 23.652 21.936C23.6849 21.8784 23.713 21.8182 23.736 21.756C23.796 21.612 23.832 21.456 23.88 21.3V21.12C23.948 20.8855 23.9883 20.6439 24 20.4V3.6C24 2.64522 23.6207 1.72955 22.9456 1.05442C22.2705 0.379285 21.3548 0 20.4 0ZM3.6 21.6C3.28174 21.6 2.97652 21.4736 2.75147 21.2485C2.52643 21.0235 2.4 20.7183 2.4 20.4V15.228L6.348 11.268C6.45956 11.1555 6.59228 11.0663 6.73851 11.0053C6.88474 10.9444 7.04159 10.913 7.2 10.913C7.35841 10.913 7.51526 10.9444 7.66149 11.0053C7.80772 11.0663 7.94044 11.1555 8.052 11.268L18.372 21.6H3.6ZM21.6 20.4C21.5989 20.5479 21.5704 20.6944 21.516 20.832C21.4886 20.8905 21.4565 20.9467 21.42 21C21.3879 21.0508 21.3518 21.099 21.312 21.144L14.892 14.724L15.948 13.668C16.0596 13.5555 16.1923 13.4663 16.3385 13.4053C16.4847 13.3444 16.6416 13.313 16.8 13.313C16.9584 13.313 17.1153 13.3444 17.2615 13.4053C17.4077 13.4663 17.5404 13.5555 17.652 13.668L21.6 17.628V20.4ZM21.6 14.232L19.344 12C18.6573 11.3484 17.7467 10.9851 16.8 10.9851C15.8533 10.9851 14.9427 11.3484 14.256 12L13.2 13.056L9.744 9.6C9.05727 8.94839 8.14668 8.58513 7.2 8.58513C6.25332 8.58513 5.34273 8.94839 4.656 9.6L2.4 11.832V3.6C2.4 3.28174 2.52643 2.97652 2.75147 2.75147C2.97652 2.52643 3.28174 2.4 3.6 2.4H20.4C20.7183 2.4 21.0235 2.52643 21.2485 2.75147C21.4736 2.97652 21.6 3.28174 21.6 3.6V14.232ZM13.8 4.8C13.444 4.8 13.096 4.90557 12.8 5.10335C12.504 5.30114 12.2733 5.58226 12.137 5.91117C12.0008 6.24008 11.9651 6.602 12.0346 6.95116C12.104 7.30033 12.2755 7.62106 12.5272 7.87279C12.7789 8.12453 13.0997 8.29596 13.4488 8.36541C13.798 8.43487 14.1599 8.39922 14.4888 8.26298C14.8177 8.12675 15.0989 7.89603 15.2966 7.60003C15.4944 7.30402 15.6 6.95601 15.6 6.6C15.6 6.12261 15.4104 5.66477 15.0728 5.32721C14.7352 4.98964 14.2774 4.8 13.8 4.8Z" fill="white"/>
</svg>
