<svg width="27" height="26" viewBox="0 0 27 26" fill="none" xmlns="http://www.w3.org/2000/svg">
<g id="Reel">
<path id="Vector" d="M20.0003 2.16675H7.00033C4.60709 2.16675 2.66699 4.10685 2.66699 6.50008V19.5001C2.66699 21.8933 4.60709 23.8334 7.00033 23.8334H20.0003C22.3936 23.8334 24.3337 21.8933 24.3337 19.5001V6.50008C24.3337 4.10685 22.3936 2.16675 20.0003 2.16675Z" stroke="white" stroke-width="2" stroke-linejoin="round"/>
<path id="Vector_2" d="M10.25 12.7932C10.25 12.3091 10.6424 11.9167 11.1264 11.9167C11.2625 11.9167 11.3967 11.9484 11.5184 12.0093L16.2655 14.3828C16.5625 14.5313 16.75 14.8348 16.75 15.1667C16.75 15.4987 16.5625 15.8022 16.2655 15.9506L11.5184 18.3242C11.3967 18.3851 11.2625 18.4167 11.1264 18.4167C10.6424 18.4167 10.25 18.0244 10.25 17.5403V12.7932Z" stroke="white" stroke-width="2" stroke-linejoin="round"/>
<path id="Vector_3" d="M2.66699 8.66675H24.3337M9.16699 8.66675L11.3337 2.16675M15.667 8.66675L17.8337 2.16675" stroke="white" stroke-width="2" stroke-linecap="round" stroke-linejoin="round"/>
</g>
</svg>
